# Blender v2.71 (sub 0) OBJ File: 'VR_WallAvoidance.blend'
# www.blender.org
mtllib VR_WallAvoidance.mtl
o LongWall2
v 0.062458 -0.362503 -0.522901
v 0.075896 -0.362503 -0.521425
v 0.022965 -0.362503 -0.039589
v 0.009528 -0.362503 -0.041065
v 0.062458 -0.182537 -0.522901
v 0.075896 -0.182537 -0.521425
v 0.022965 -0.182537 -0.039589
v 0.009528 -0.182537 -0.041065
v -0.010529 -0.362503 0.156336
v 0.002909 -0.362503 0.157812
v -0.020296 -0.362503 0.369054
v -0.033734 -0.362503 0.367578
v -0.010529 -0.182537 0.156336
v 0.002909 -0.182537 0.157812
v -0.020296 -0.182537 0.369054
v -0.033734 -0.182537 0.367578
vt 1.000000 0.351265
vt 1.000000 0.648735
vt 0.977240 0.648735
vt 0.000000 0.801225
vt 0.000000 0.000000
vt 0.302987 0.000000
vt 0.954480 1.000000
vt 0.954480 0.702531
vt 0.977240 0.702531
vt 0.302987 0.801225
vt 0.605974 0.000000
vt 0.908961 0.801225
vt 0.908960 0.000000
vt 0.931720 0.000000
vt 0.954480 0.000000
vt 0.954480 0.801225
vt 0.931720 0.801225
vt 1.000000 0.000000
vt 1.000000 0.297469
vt 0.977240 0.297469
vt 0.605974 0.702531
vt 0.605974 0.351266
vt 0.908960 0.351266
vt 1.000000 0.946204
vt 0.977240 0.351265
vt 0.954480 0.351265
vt 0.977240 1.000000
vt 0.605974 0.801225
vt 0.977240 0.000000
vt 0.908960 0.702531
vt 0.977240 0.946204
vn 0.109200 0.000000 -0.994000
vn 0.994000 0.000000 0.109200
vn -0.109200 0.000000 0.994000
vn -0.994000 0.000000 -0.109200
vn 0.000000 -1.000000 -0.000000
vn 0.000000 1.000000 0.000000
usemtl None
s off
f 6/1/1 2/2/1 1/3/1
f 6/4/2 7/5/2 3/6/2
f 8/7/3 4/8/3 3/9/3
f 8/10/4 5/6/4 1/11/4
f 2/12/5 3/13/5 4/14/5
f 7/15/6 6/16/6 5/17/6
f 14/18/1 10/19/1 9/20/1
f 14/21/2 15/22/2 11/23/2
f 15/3/3 16/2/3 12/24/3
f 16/22/4 13/11/4 9/13/4
f 9/25/5 10/26/5 11/15/5
f 15/25/6 14/9/6 13/8/6
f 5/25/1 6/1/1 1/3/1
f 2/10/2 6/4/2 3/6/2
f 7/27/3 8/7/3 3/9/3
f 4/28/4 8/10/4 1/11/4
f 1/17/5 2/12/5 4/14/5
f 8/14/6 7/15/6 5/17/6
f 13/29/1 14/18/1 9/20/1
f 10/30/2 14/21/2 11/23/2
f 11/31/3 15/3/3 12/24/3
f 12/23/4 16/22/4 9/13/4
f 12/29/5 9/25/5 11/15/5
f 16/26/6 15/25/6 13/8/6
o ShortWall1
v -0.448106 -0.357744 0.071077
v -0.446630 -0.357744 0.057639
v 0.035206 -0.357744 0.110571
v 0.033730 -0.357744 0.124008
v -0.448106 -0.177777 0.071077
v -0.446630 -0.177777 0.057639
v 0.035206 -0.177777 0.110571
v 0.033730 -0.177777 0.124008
vt 1.000000 0.000000
vt 1.000000 0.371268
vt 0.966244 0.371268
vt 0.000000 0.000000
vt 0.449366 0.000000
vt 0.449366 1.000000
vt 0.966244 0.742535
vt 0.898733 0.000000
vt 0.898733 1.000000
vt 0.932488 0.000000
vt 0.966244 0.000000
vt 0.966244 1.000000
vt 0.932489 1.000000
vt 0.000000 1.000000
vt 1.000000 0.742535
vn -0.994000 0.000000 -0.109200
vn 0.109200 0.000000 -0.994000
vn 0.994000 0.000000 0.109200
vn -0.109200 0.000000 0.994000
vn 0.000000 -1.000000 -0.000000
vn 0.000000 1.000000 0.000000
usemtl None
s off
f 22/32/7 18/33/7 17/34/7
f 23/35/8 19/36/8 18/37/8
f 24/38/9 20/34/9 19/33/9
f 21/36/10 17/39/10 20/40/10
f 18/40/11 19/39/11 20/41/11
f 23/42/12 22/43/12 21/44/12
f 21/42/7 22/32/7 17/34/7
f 22/45/8 23/35/8 18/37/8
f 23/46/9 24/38/9 19/33/9
f 24/37/10 21/36/10 20/40/10
f 17/44/11 18/40/11 20/41/11
f 24/41/12 23/42/12 21/44/12
o LongWall1
v -0.070303 -0.362503 0.809453
v -0.083741 -0.362503 0.807976
v -0.030810 -0.362503 0.326140
v -0.017372 -0.362503 0.327617
v -0.070303 -0.182537 0.809453
v -0.083741 -0.182537 0.807976
v -0.030810 -0.182537 0.326140
v -0.017372 -0.182537 0.327617
v 0.002685 -0.362503 0.130216
v -0.010753 -0.362503 0.128740
v 0.012453 -0.362503 -0.082502
v 0.025891 -0.362503 -0.081026
v 0.002685 -0.182537 0.130216
v -0.010753 -0.182537 0.128740
v 0.012453 -0.182537 -0.082502
v 0.025891 -0.182537 -0.081026
vt 1.000000 0.351265
vt 1.000000 0.648735
vt 0.977240 0.648735
vt 0.000000 0.000000
vt 0.302987 0.000000
vt 0.302987 0.801225
vt 0.954480 1.000000
vt 0.954480 0.702531
vt 0.977240 0.702531
vt 0.605974 0.000000
vt 0.605974 0.801225
vt 0.908961 0.801225
vt 0.908960 0.000000
vt 0.931720 0.000000
vt 0.954480 0.000000
vt 0.954480 0.801225
vt 0.931720 0.801225
vt 1.000000 0.000000
vt 1.000000 0.297469
vt 0.977240 0.297469
vt 0.605974 0.351266
vt 0.908960 0.351266
vt 0.908960 0.702531
vt 1.000000 0.946204
vt 0.954480 0.351265
vt 0.977240 0.000000
vt 0.977240 0.351265
vt 0.000000 0.801225
vt 0.977240 1.000000
vt 0.605974 0.702531
vt 0.977240 0.946204
vn -0.109200 0.000000 0.994000
vn -0.994000 0.000000 -0.109200
vn 0.109200 0.000000 -0.994000
vn 0.994000 0.000000 0.109200
vn 0.000000 -1.000000 -0.000000
vn 0.000000 1.000000 0.000000
usemtl None
s off
f 30/47/13 26/48/13 25/49/13
f 31/50/14 27/51/14 26/52/14
f 32/53/15 28/54/15 27/55/15
f 29/51/16 25/56/16 28/57/16
f 26/58/17 27/59/17 28/60/17
f 31/61/18 30/62/18 29/63/18
f 38/64/13 34/65/13 33/66/13
f 39/67/14 35/68/14 34/69/14
f 39/49/15 40/48/15 36/70/15
f 40/67/16 37/56/16 33/59/16
f 34/71/17 35/61/17 36/72/17
f 39/73/18 38/55/18 37/54/18
f 29/73/13 30/47/13 25/49/13
f 30/74/14 31/50/14 26/52/14
f 31/75/15 32/53/15 27/55/15
f 32/52/16 29/51/16 28/57/16
f 25/63/17 26/58/17 28/60/17
f 32/60/18 31/61/18 29/63/18
f 37/72/13 38/64/13 33/66/13
f 38/76/14 39/67/14 34/69/14
f 35/77/15 39/49/15 36/70/15
f 36/68/16 40/67/16 33/59/16
f 33/73/17 34/71/17 36/72/17
f 40/71/18 39/73/18 37/54/18
o ShortWall2
v -0.075674 -0.357744 0.111990
v -0.074198 -0.357744 0.098552
v 0.407638 -0.357744 0.151483
v 0.406162 -0.357744 0.164921
v -0.075674 -0.177777 0.111990
v -0.074198 -0.177777 0.098552
v 0.407638 -0.177777 0.151483
v 0.406162 -0.177777 0.164921
vt 1.000000 0.000000
vt 1.000000 0.371268
vt 0.966244 0.371268
vt 0.000000 0.000000
vt 0.449366 0.000000
vt 0.449366 1.000000
vt 0.966244 0.742535
vt 0.898733 0.000000
vt 0.898733 1.000000
vt 0.932488 0.000000
vt 0.966244 0.000000
vt 0.966244 1.000000
vt 0.932489 1.000000
vt 0.000000 1.000000
vt 1.000000 0.742535
vn -0.994000 0.000000 -0.109200
vn 0.109200 0.000000 -0.994000
vn 0.994000 0.000000 0.109200
vn -0.109200 0.000000 0.994000
vn 0.000000 -1.000000 0.000000
vn 0.000000 1.000000 0.000000
usemtl None
s off
f 46/78/19 42/79/19 41/80/19
f 47/81/20 43/82/20 42/83/20
f 48/84/21 44/80/21 43/79/21
f 45/82/22 41/85/22 44/86/22
f 42/86/23 43/85/23 44/87/23
f 47/88/24 46/89/24 45/90/24
f 45/88/19 46/78/19 41/80/19
f 46/91/20 47/81/20 42/83/20
f 47/92/21 48/84/21 43/79/21
f 48/83/22 45/82/22 44/86/22
f 41/90/23 42/86/23 44/87/23
f 48/87/24 47/88/24 45/90/24
o Arena
v -0.277773 -0.353049 -0.472509
v -0.423672 0.003147 -0.655742
v -0.588415 0.003147 0.822594
v -0.277773 -0.353049 -0.472509
v -0.588415 0.003147 0.822594
v -0.403943 -0.356187 0.672831
v -0.588415 0.003147 0.822594
v 0.392703 0.003147 0.934113
v 0.241051 -0.357474 0.745533
v -0.588415 0.003147 0.822594
v 0.241051 -0.357474 0.745533
v -0.403943 -0.356187 0.672831
v 0.392703 0.003147 0.934113
v 0.553406 0.003147 -0.541765
v 0.366920 -0.354344 -0.396702
v 0.392703 0.003147 0.934113
v 0.366920 -0.354344 -0.396702
v 0.241051 -0.357474 0.745533
v 0.366920 -0.354344 -0.396702
v 0.553406 0.003147 -0.541765
v -0.423672 0.003147 -0.655742
v 0.366920 -0.354344 -0.396702
v -0.423672 0.003147 -0.655742
v -0.277773 -0.353049 -0.472509
v 0.241051 -0.357474 0.745533
v 0.366920 -0.354344 -0.396702
v -0.277773 -0.353049 -0.472509
v 0.241051 -0.357474 0.745533
v -0.277773 -0.353049 -0.472509
v -0.403943 -0.356187 0.672831
vt 0.631443 0.084679
vt 0.712240 0.000000
vt 0.712240 0.754632
vt 0.854675 0.000000
vt 0.854675 0.675225
vt 0.784019 0.579916
vt 0.937061 0.000000
vt 0.937061 0.500947
vt 0.854675 0.414062
vt 0.999661 0.500947
vt 0.999661 0.923819
vt 0.935794 0.601326
vt 0.631443 0.000000
vt 0.631443 0.753168
vt 0.549194 0.669271
vt 0.784019 0.000000
vt 0.784019 0.674739
vt 0.712240 0.096569
vt 0.854675 0.586030
vt 0.935794 0.500947
vt 0.935794 1.000000
vt 1.000000 0.000000
vt 1.000000 0.422516
vt 0.937061 0.322721
vt 0.549194 0.671666
vt 0.274961 0.163555
vt 0.549194 0.000000
vt 0.274961 0.000000
vt 0.274961 0.671666
vt 0.000000 0.162166
vn 0.901500 0.420900 0.100500
vn 0.102100 0.426900 -0.898500
vn -0.898100 0.428800 -0.097800
vn -0.105100 0.420500 0.901200
vn 0.001700 1.000000 0.002900
usemtl Material
s off
f 49/93/25 50/94/25 51/95/25
f 52/96/25 53/97/25 54/98/25
f 55/99/26 56/100/26 57/101/26
f 58/102/26 59/103/26 60/104/26
f 61/105/27 62/106/27 63/107/27
f 64/108/27 65/109/27 66/110/27
f 67/111/28 68/112/28 69/113/28
f 70/114/28 71/115/28 72/116/28
f 73/117/29 74/118/29 75/119/29
f 76/120/29 77/121/29 78/122/29
